<?xml version="1.0" standalone="no"?>
<!DOCTYPE svg PUBLIC "-//W3C//DTD SVG 20010904//EN"
 "http://www.w3.org/TR/2001/REC-SVG-20010904/DTD/svg10.dtd">
<svg version="1.0" xmlns="http://www.w3.org/2000/svg"
 width="150.000000pt" height="36.000000pt" viewBox="0 0 150.000000 36.000000"
 preserveAspectRatio="xMidYMid meet">

<g transform="translate(0.000000,36.000000) scale(0.100000,-0.100000)"
fill="#000000" stroke="none">
<path d="M1040 215 c0 -90 4 -145 10 -145 6 0 10 55 10 145 0 90 -4 145 -10
145 -6 0 -10 -55 -10 -145z"/>
<path d="M12 330 c-7 -11 -9 -20 -4 -20 10 0 32 22 32 32 0 15 -15 8 -28 -12z"/>
<path d="M46 334 c-8 -22 -8 -24 7 -24 7 0 18 9 25 20 11 17 10 20 -7 20 -10
0 -22 -7 -25 -16z"/>
<path d="M92 338 c-19 -19 -14 -28 13 -28 l25 0 0 -115 c0 -108 1 -115 20
-115 19 0 20 7 20 115 0 94 3 115 15 115 8 0 19 9 25 20 10 19 8 20 -48 20
-32 0 -63 -5 -70 -12z"/>
<path d="M220 330 c-8 -15 -8 -20 3 -20 14 0 37 19 37 32 0 16 -30 7 -40 -12z"/>
<path d="M272 338 c-14 -14 -16 -28 -2 -28 5 0 14 9 20 20 12 22 1 27 -18 8z"/>
<path d="M820 205 l0 -145 -232 0 c-127 0 -228 -3 -224 -7 5 -5 272 -7 464 -3
8 0 12 20 12 65 l0 65 40 0 c71 0 110 30 110 85 0 57 -39 85 -120 85 l-50 0 0
-145z m85 125 c42 0 65 -22 65 -64 0 -43 -28 -67 -85 -73 l-45 -6 0 78 c0 66
2 76 16 71 9 -3 31 -6 49 -6z"/>
<path d="M220 286 c0 -3 18 -46 40 -97 42 -94 42 -95 15 -162 -13 -31 23 -19
41 14 33 64 104 242 99 248 -14 13 -39 -19 -62 -77 -14 -35 -29 -60 -33 -55
-5 4 -19 35 -33 68 -18 43 -31 61 -46 63 -12 2 -21 1 -21 -2z"/>
<path d="M450 185 c0 -98 1 -105 20 -105 18 0 20 7 20 68 0 75 16 102 58 102
15 0 22 6 22 20 0 25 -41 28 -61 4 -11 -14 -13 -14 -21 0 -5 9 -16 16 -23 16
-12 0 -15 -20 -15 -105z"/>
<path d="M617 266 c-70 -65 -32 -186 59 -186 44 0 87 17 81 33 -4 12 -12 12
-69 0 -28 -5 -68 24 -68 52 0 12 14 15 70 15 l70 0 0 30 c0 71 -90 106 -143
56z m101 -33 c14 -23 14 -23 -42 -23 -58 0 -60 3 -33 38 15 19 58 10 75 -15z"/>
<path d="M1149 241 c-22 -22 -29 -39 -29 -68 0 -81 51 -125 121 -104 22 7 39
16 39 22 0 6 -7 6 -19 -1 -11 -5 -35 -10 -55 -10 -39 0 -66 28 -66 67 0 22 4
23 69 23 39 0 73 5 76 11 11 17 -15 66 -41 78 -40 18 -63 13 -95 -18z m84 8
c27 -14 37 -28 37 -51 0 -15 -10 -18 -65 -18 -74 0 -83 13 -40 55 27 28 37 30
68 14z"/>
<path d="M1340 254 c0 -3 14 -24 31 -45 l30 -39 -31 -45 c-18 -26 -30 -49 -27
-52 3 -2 18 14 33 36 14 23 30 41 34 41 3 0 21 -21 39 -46 42 -58 53 -50 12
10 -17 24 -31 50 -31 56 0 7 14 30 31 51 17 21 26 39 20 39 -6 0 -23 -18 -37
-40 -15 -22 -29 -40 -33 -40 -3 0 -17 18 -31 40 -22 36 -40 51 -40 34z"/>
</g>
</svg>
